HIERARCHY
ROOT hip
{
  OFFSET 0 0 0
  CHANNELS 6 Xposition Yposition Zposition Zrotation Yrotation Xrotation
  JOINT abdomen
  {
    OFFSET 0 20.6881 -0.73152
    CHANNELS 3 Zrotation Xrotation Yrotation
    JOINT chest
    {
      OFFSET 0 11.7043 -0.48768
      CHANNELS 3 Zrotation Xrotation Yrotation
      JOINT neck
      {
        OFFSET 0 22.1894 -2.19456
        CHANNELS 3 Zrotation Xrotation Yrotation
        JOINT head
        {
          OFFSET -0.24384 7.07133 1.2192
          CHANNELS 3 Zrotation Xrotation Yrotation
          JOINT leftEye
          {
            OFFSET 4.14528 8.04674 8.04672
            CHANNELS 3 Zrotation Xrotation Yrotation
            End Site
            {
              OFFSET 1 0 0
            }
          }
          JOINT rightEye
          {
            OFFSET -3.6576 8.04674 8.04672
            CHANNELS 3 Zrotation Xrotation Yrotation
            End Site
            {
              OFFSET 1 0 0
            }
          }
        }
      }
      JOINT rCollar
      {
        OFFSET -2.68224 19.2634 -4.8768
        CHANNELS 3 Zrotation Xrotation Yrotation
        JOINT rShldr
        {
          OFFSET -8.77824 -1.95073 1.46304
          CHANNELS 3 Zrotation Xrotation Yrotation
          JOINT rForeArm
          {
            OFFSET -28.1742 -1.7115 0.48768
            CHANNELS 3 Zrotation Xrotation Yrotation
            JOINT rHand
            {
              OFFSET -22.5879 0.773209 7.07136
              CHANNELS 3 Zrotation Xrotation Yrotation
              JOINT rThumb1
              {
                OFFSET -1.2192 -0.487915 3.41376
                CHANNELS 3 Zrotation Xrotation Yrotation
                JOINT rThumb2
                {
                  OFFSET -3.37035 -0.52449 3.41376
                  CHANNELS 3 Zrotation Xrotation Yrotation
                  End Site
                  {
                    OFFSET -1.78271 -1.18214 1.43049
                  }
                }
              }
              JOINT rIndex1
              {
                OFFSET -7.75947 0.938293 5.60832
                CHANNELS 3 Zrotation Xrotation Yrotation
                JOINT rIndex2
                {
                  OFFSET -2.54057 -0.884171 1.56538
                  CHANNELS 3 Zrotation Xrotation Yrotation
                  End Site
                  {
                    OFFSET -1.62519 -0.234802 1.16502
                  }
                }
              }
              JOINT rMid1
              {
                OFFSET -8.24714 1.18213 3.41376
                CHANNELS 3 Zrotation Xrotation Yrotation
                JOINT rMid2
                {
                  OFFSET -3.10165 -0.590103 1.0647
                  CHANNELS 3 Zrotation Xrotation Yrotation
                  End Site
                  {
                    OFFSET -2.48547 -0.328903 0.83742
                  }
                }
              }
              JOINT rRing1
              {
                OFFSET -8.82822 0.546677 1.51678
                CHANNELS 3 Zrotation Xrotation Yrotation
                JOINT rRing2
                {
                  OFFSET -2.60934 -0.819778 -0.0198488
                  CHANNELS 3 Zrotation Xrotation Yrotation
                  End Site
                  {
                    OFFSET -2.33842 -0.294052 0.168128
                  }
                }
              }
              JOINT rPinky1
              {
                OFFSET -8.27202 -0.0477905 -0.4584
                CHANNELS 3 Zrotation Xrotation Yrotation
                JOINT rPinky2
                {
                  OFFSET -1.82734 -0.647385 -0.700984
                  CHANNELS 3 Zrotation Xrotation Yrotation
                  End Site
                  {
                    OFFSET -1.69225 -0.51767 -0.607171
                  }
                }
              }
            }
          }
        }
      }
      JOINT lCollar
      {
        OFFSET 2.68224 19.2634 -4.8768
        CHANNELS 3 Zrotation Xrotation Yrotation
        JOINT lShldr
        {
          OFFSET 8.77824 -1.95073 1.46304
          CHANNELS 3 Zrotation Xrotation Yrotation
          JOINT lForeArm
          {
            OFFSET 28.1742 -1.7115 0.48768
            CHANNELS 3 Zrotation Xrotation Yrotation
            JOINT lHand
            {
              OFFSET 22.5879 0.773209 7.07136
              CHANNELS 3 Zrotation Xrotation Yrotation
              JOINT lThumb1
              {
                OFFSET 1.2192 -0.487915 3.41376
                CHANNELS 3 Zrotation Xrotation Yrotation
                JOINT lThumb2
                {
                  OFFSET 3.37035 -0.52449 3.41376
                  CHANNELS 3 Zrotation Xrotation Yrotation
                  End Site
                  {
                    OFFSET 1.78271 -1.18214 1.43049
                  }
                }
              }
              JOINT lIndex1
              {
                OFFSET 7.75947 0.938293 5.60832
                CHANNELS 3 Zrotation Xrotation Yrotation
                JOINT lIndex2
                {
                  OFFSET 2.54057 -0.884171 1.56538
                  CHANNELS 3 Zrotation Xrotation Yrotation
                  End Site
                  {
                    OFFSET 1.62519 -0.234802 1.16502
                  }
                }
              }
              JOINT lMid1
              {
                OFFSET 8.24714 1.18213 3.41376
                CHANNELS 3 Zrotation Xrotation Yrotation
                JOINT lMid2
                {
                  OFFSET 3.10165 -0.590103 1.0647
                  CHANNELS 3 Zrotation Xrotation Yrotation
                  End Site
                  {
                    OFFSET 2.48547 -0.328903 0.83742
                  }
                }
              }
              JOINT lRing1
              {
                OFFSET 8.82822 0.546677 1.51678
                CHANNELS 3 Zrotation Xrotation Yrotation
                JOINT lRing2
                {
                  OFFSET 2.60934 -0.819778 -0.0198488
                  CHANNELS 3 Zrotation Xrotation Yrotation
                  End Site
                  {
                    OFFSET 2.33842 -0.294052 0.168128
                  }
                }
              }
              JOINT lPinky1
              {
                OFFSET 8.27202 -0.0477905 -0.4584
                CHANNELS 3 Zrotation Xrotation Yrotation
                JOINT lPinky2
                {
                  OFFSET 1.82734 -0.647385 -0.700984
                  CHANNELS 3 Zrotation Xrotation Yrotation
                  End Site
                  {
                    OFFSET 1.69225 -0.51767 -0.607171
                  }
                }
              }
            }
          }
        }
      }
    }
  }
  JOINT rButtock
  {
    OFFSET -8.77824 4.35084 1.2192
    CHANNELS 3 Zrotation Xrotation Yrotation
    JOINT rThigh
    {
      OFFSET 0 -1.70687 -2.19456
      CHANNELS 3 Zrotation Xrotation Yrotation
      JOINT rShin
      {
        OFFSET 0 -36.8199 0.73152
        CHANNELS 3 Zrotation Xrotation Yrotation
        JOINT rFoot
        {
          OFFSET 0.73152 -45.1104 -5.12064
          CHANNELS 3 Zrotation Xrotation Yrotation
          End Site
          {
            OFFSET -1.1221 -3.69964 12.103
          }
        }
      }
    }
  }
  JOINT lButtock
  {
    OFFSET 8.77824 4.35084 1.2192
    CHANNELS 3 Zrotation Xrotation Yrotation
    JOINT lThigh
    {
      OFFSET 0 -1.70687 -2.19456
      CHANNELS 3 Zrotation Xrotation Yrotation
      JOINT lShin
      {
        OFFSET 0 -36.8199 0.73152
        CHANNELS 3 Zrotation Xrotation Yrotation
        JOINT lFoot
        {
          OFFSET -0.73152 -45.1104 -5.12064
          CHANNELS 3 Zrotation Xrotation Yrotation
          End Site
          {
            OFFSET 1.1221 -3.69964 12.103
          }
        }
      }
    }
  }
}
MOTION
Frames:	4
Frame Time:	0.00833333
73.8644 85.3166 73.3883 0.0 0.0 0.0 1.08606 -0.00408994 0.0298993 0.299446 -0.00345835 0.0518743 2.4376e-14 1.59028e-15 -7.45441e-17 7.2867e-14 9.54166e-15 -1.28899e-16 -0.0 0.0 0.0 -0.0 0.0 0.0 1.21744e-14 -3.76604e-17 4.96962e-17 2.5451e-13 -1.06226e-15 1.19271e-15 4.36208e-12 -1.33126e-12 -2.8625e-14 4.99217e-11 1.16329e-12 -6.04305e-14 1.17752e-10 -3.62756e-13 -1.94014e-13 2.03345e-10 -6.26569e-13 -3.58608e-13 1.17755e-10 -3.63776e-13 -2.00375e-13 7.73091 5.47488 0.417314 1.17753e-10 -3.62583e-13 -2.00375e-13 2.90554 0.965183 0.102902 1.17761e-10 -3.62881e-13 -1.9958e-13 10.2786 0.731801 0.0259123 1.17748e-10 -3.60993e-13 -2.00375e-13 2.22167 -0.733487 -0.20892 1.19787e-14 -4.11546e-17 -1.49089e-16 2.52145e-13 -1.06226e-15 -9.93923e-16 4.36243e-12 1.27878e-12 -8.26944e-14 4.99206e-11 -1.44859e-12 -6.36111e-15 1.17756e-10 -3.64899e-13 -2.06736e-13 2.03362e-10 -6.26569e-13 -3.54632e-13 1.1775e-10 -3.65764e-13 -1.97194e-13 -7.73091 5.47488 -0.417314 1.17757e-10 -3.65068e-13 -2.00375e-13 -2.90554 0.965183 -0.102902 1.1775e-10 -3.6467e-13 -2.0276e-13 -10.2786 0.731801 -0.0259123 1.17756e-10 -3.65366e-13 -2.13097e-13 -2.22167 -0.733487 0.20892 -2.03217e-16 0.0 -3.88251e-19 1.33867 -5.65666 -0.11779 0.000448865 4.68993 0.0313075 -0.524614 0.964919 0.0795464 2.03217e-16 0.0 3.88251e-19 0.313463 -1.92005 0.0118645 0.00934838 -2.07854 0.0772566 0.509875 3.99665 -0.139961
73.0619 83.254 64.8607 -178.268 -10.6225 -171.448 1.13819 1.88225 1.46012 0.950113 -0.178329 0.476636 -3.52529 0.958021 -1.58335 2.39255 -2.76537 -2.25992 -0.0 0.0 0.0 -0.0 0.0 0.0 4.87507e-15 -6.29936e-14 3.9234e-14 20.7707 3.61957 1.76626 -5.05521 -2.49188 7.67295 0.0135384 -2.5866 -0.362195 1.22368e-10 -3.14246e-10 2.90248e-10 2.10101e-10 -5.41972e-10 5.01742e-10 1.22371e-10 -3.14247e-10 2.90241e-10 7.73091 5.47488 0.417314 1.22368e-10 -3.14247e-10 2.90243e-10 2.90554 0.965183 0.102902 1.22375e-10 -3.14247e-10 2.90244e-10 10.2786 0.731801 0.0259123 1.22365e-10 -3.14245e-10 2.90246e-10 2.22167 -0.733487 -0.20892 4.71583e-15 -6.29938e-14 3.90398e-14 -21.6009 3.87504 -0.315656 4.83808 -2.33712 -7.39992 -0.00753384 1.93175 -0.270938 -1.7775e-11 -5.64574e-10 -2.2716e-10 -3.2228e-11 -9.76784e-10 -3.9162e-10 -1.77779e-11 -5.6456e-10 -2.27151e-10 -7.73091 5.47488 -0.417314 -1.77732e-11 -5.64574e-10 -2.2716e-10 -2.90554 0.965183 -0.102902 -1.77806e-11 -5.64574e-10 -2.2716e-10 -10.2786 0.731801 -0.0259123 -1.77721e-11 -5.64557e-10 -2.2717e-10 -2.22167 -0.733487 0.20892 -2.03217e-16 0.0 -3.88251e-19 1.12028 -9.05172 -0.181682 0.0140424 12.2202 0.158502 -0.702489 -3.90402 -2.57068 2.03217e-16 0.0 3.88251e-19 4.92773 -6.43822 -0.44164 0.00571884 10.7282 -0.0905757 0.537477 4.44387 3.43582
73.5312 83.2496 64.458 -178.11 -10.2891 -171.623 1.07721 3.87579 2.97684 1.64447 -0.357298 0.924801 -7.19313 1.94673 -3.25688 4.68146 -5.66505 -4.65837 -0.0 0.0 0.0 -0.0 0.0 0.0 -2.48356e-15 -1.28434e-13 7.90883e-14 42.4888 7.42161 3.66604 -9.66892 -4.96784 15.8137 -0.00782949 -5.30176 -0.744903 1.17624e-10 -6.43694e-10 5.80059e-10 2.00741e-10 -1.1104e-09 1.00263e-09 1.17627e-10 -6.43696e-10 5.80049e-10 7.73091 5.47488 0.417314 1.17623e-10 -6.43697e-10 5.80055e-10 2.90554 0.965183 0.102902 1.17628e-10 -6.43697e-10 5.80056e-10 10.2786 0.731801 0.0259123 1.17621e-10 -6.43695e-10 5.80061e-10 2.22167 -0.733487 -0.20892 -2.60427e-15 -1.28431e-13 7.8902e-14 -44.3763 7.97311 -0.68247 9.30751 -4.6821 -15.2703 0.00440464 3.95583 -0.555875 -1.50227e-10 -1.12788e-09 -4.60071e-10 -2.6247e-10 -1.95134e-09 -7.93228e-10 -1.50228e-10 -1.12785e-09 -4.60063e-10 -7.73091 5.47488 -0.417314 -1.50225e-10 -1.12788e-09 -4.60078e-10 -2.90554 0.965183 -0.102902 -1.50233e-10 -1.12788e-09 -4.60075e-10 -10.2786 0.731801 -0.0259123 -1.50222e-10 -1.12785e-09 -4.60086e-10 -2.22167 -0.733487 0.20892 -2.03217e-16 0.0 -3.88251e-19 0.857139 -12.669 -0.259654 -0.0105655 20.2087 0.305219 -1.38915 -9.01868 -5.44259 2.03217e-16 0.0 3.88251e-19 9.71855 -11.1705 -0.939631 0.088726 24.1852 -0.289331 0.508893 4.86073 7.22889
74.0052 83.2454 64.0565 -177.774 -10.0934 -171.76 0.959055 5.64064 4.33924 2.25923 -0.527948 1.32621 -10.4171 2.86528 -4.75534 6.51911 -8.24424 -6.84292 -0.0 0.0 0.0 -0.0 0.0 0.0 -9.72362e-15 -1.88906e-13 1.17602e-13 61.6334 10.8171 5.38415 -13.211 -6.94053 23.1766 -0.0582574 -7.75856 -1.09551 1.316e-10 -9.42012e-10 8.71133e-10 2.23613e-10 -1.62466e-09 1.50594e-09 1.31603e-10 -9.42013e-10 8.71123e-10 7.73091 5.47488 0.417314 1.31599e-10 -9.42016e-10 8.71131e-10 2.90554 0.965183 0.102902 1.31603e-10 -9.42015e-10 8.71131e-10 10.2786 0.731801 0.0259123 1.31597e-10 -9.42014e-10 8.7114e-10 2.22167 -0.733487 -0.20892 -9.80998e-15 -1.88899e-13 1.17418e-13 -64.6725 11.6237 -0.964587 12.7437 -6.54456 -22.3345 0.0324449 5.79472 -0.816526 -2.88836e-10 -1.69299e-09 -6.81066e-10 -5.03408e-10 -2.9291e-09 -1.17415e-09 -2.88835e-10 -1.69295e-09 -6.8106e-10 -7.73091 5.47488 -0.417314 -2.88833e-10 -1.69299e-09 -6.8108e-10 -2.90554 0.965183 -0.102902 -2.88842e-10 -1.69299e-09 -6.81073e-10 -10.2786 0.731801 -0.0259123 -2.88828e-10 -1.69294e-09 -6.81085e-10 -2.22167 -0.733487 0.20892 -2.03217e-16 0.0 -3.88251e-19 0.659803 -15.8417 -0.315821 -0.0707231 27.2801 0.452675 -2.4365 -13.5232 -8.07861 2.03217e-16 0.0 3.88251e-19 13.9346 -15.4708 -1.39068 0.263489 36.3405 -0.523136 0.426705 5.2712 10.601
